<?xml version="1.0" encoding="UTF-8" standalone="no"?>
<svg
   style="enable-background:new"
   height="512"
   viewBox="0 0 512.40002 512"
   width="512.4"
   version="1.1"
   id="svg2187"
   sodipodi:docname="logo.svg"
   inkscape:version="1.2.1 (0f2f062aeb, 2022-09-21, custom)"
   xmlns:inkscape="http://www.inkscape.org/namespaces/inkscape"
   xmlns:sodipodi="http://sodipodi.sourceforge.net/DTD/sodipodi-0.dtd"
   xmlns="http://www.w3.org/2000/svg"
   xmlns:svg="http://www.w3.org/2000/svg">
  <sodipodi:namedview
     id="namedview2189"
     pagecolor="#ffffff"
     bordercolor="#999999"
     borderopacity="1"
     inkscape:showpageshadow="0"
     inkscape:pageopacity="0"
     inkscape:pagecheckerboard="0"
     inkscape:deskcolor="#d1d1d1"
     showgrid="false"
     showguides="false"
     inkscape:zoom="1.4142136"
     inkscape:cx="234.05234"
     inkscape:cy="126.57211"
     inkscape:window-width="1920"
     inkscape:window-height="935"
     inkscape:window-x="0"
     inkscape:window-y="0"
     inkscape:window-maximized="1"
     inkscape:current-layer="svg2187" />
  <defs
     id="defs2159">
    <rect
       x="188.70492"
       y="220.29508"
       width="130.27322"
       height="95.639344"
       id="rect5595" />
    <linearGradient
       id="a"
       y2="494"
       gradientUnits="userSpaceOnUse"
       x2="256"
       gradientTransform="matrix(1 0 0 1.076 0 -19.36)"
       y1="18"
       x1="256">
      <stop
         style="stop-color:#eaeaea"
         offset="0"
         id="stop2154" />
      <stop
         style="stop-color:#f4f4f4"
         offset="1"
         id="stop2156" />
    </linearGradient>
  </defs>
  <rect
     style="fill:#ffffff;fill-rule:evenodd;stroke-width:1"
     id="rect5509"
     width="510.81967"
     height="510.58011"
     x="0.5425359"
     y="1.2907733"
     sodipodi:insensitive="true" />
  <path
     d="m-208.3 605.6c-7.842 0-14.55 5.029-17.32 12.19-0.0612-0.00067-0.1208 0-0.1823 0-7.088 0-12.83 6.002-12.83 13.41 0 7.404 5.746 13.41 12.83 13.41h17.5 16.33c5.155 0 9.333-4.365 9.333-9.75 0-4.543-2.974-8.363-7-9.445 0.001-0.1029 0-0.2015 0-0.3047 0-10.77-8.357-19.5-18.67-19.5z"
     style="stroke-width:4;color:#000000;stroke:#ccc;enable-background:accumulate;display:none;fill:#fff"
     id="path2171" />
  <path
     style="stroke-width:4;color:#000000;stroke:#ccc;enable-background:accumulate;display:none;fill:none"
     d="m288.9 828.1c-6.349 0-11.78 4.072-14.02 9.867-0.0496-0.00055-0.0978 0-0.1476 0-5.738 0-10.39 4.86-10.39 10.85 0 5.995 4.652 10.85 10.39 10.85h14.17 13.22c4.173 0 7.557-3.534 7.557-7.894 0-3.678-2.408-6.771-5.667-7.647 0.001-0.0833 0-0.1632 0-0.2467 0-8.719-6.766-15.79-15.11-15.79z"
     id="path2173" />
  <g
     style="display:none"
     transform="translate(0 -558.4)"
     id="g2185">
    <path
       d="m166.1 576.4h179.9c145.3 0 166.1 20.74 166.1 165.9v144.2c0 145.2-20.76 165.9-166.1 165.9h-179.9c-145.3 0-166.1-20-166.1-165.5v-144.2c0-145.2 20.76-165.9 166.1-165.9z"
       style="stroke:#00f;fill:#00f;display:inline;fill-opacity:.08118"
       id="path2175" />
    <circle
       style="stroke-width:.8333;fill-opacity:.08118;color:#000000;stroke:#00f;enable-background:accumulate;display:inline;fill:#00f"
       cx="256"
       transform="matrix(1.2 0 0 1.2 -51.2 528.8)"
       cy="238"
       r="120"
       id="circle2177" />
    <rect
       style="stroke-linejoin:round;fill-opacity:.08118;color:#000000;stroke:#00f;stroke-linecap:round;enable-background:accumulate;display:inline;fill:#00f"
       height="272"
       width="272"
       y="678.4"
       x="120"
       id="rect2179" />
    <rect
       style="stroke-linejoin:round;fill-opacity:.08118;color:#000000;stroke:#00f;stroke-linecap:round;enable-background:accumulate;display:inline;fill:#00f"
       height="240"
       width="304"
       y="694.4"
       x="104"
       id="rect2181" />
    <rect
       style="stroke-linejoin:round;fill-opacity:.08118;color:#000000;stroke:#00f;stroke-linecap:round;enable-background:accumulate;display:inline;fill:#00f"
       height="304"
       width="240"
       y="662.4"
       x="136"
       id="rect2183" />
  </g>
  <ellipse
     style="opacity:1;fill:#800066;fill-rule:evenodd;stroke:#000000;stroke-width:0;stroke-linejoin:round;stroke-dasharray:none;stroke-opacity:1"
     id="path11023"
     cx="256.19568"
     cy="256.00385"
     rx="256.2005"
     ry="255.99222"
     sodipodi:insensitive="true" />
  <ellipse
     style="fill:#11002b;fill-rule:evenodd;stroke-width:0;stroke-linejoin:round;stroke-opacity:0.788633"
     id="path559"
     cx="254.50977"
     cy="253.58984"
     rx="136.91602"
     ry="147.14844"
     sodipodi:insensitive="true" />
  <ellipse
     style="fill:#ffffff;fill-rule:evenodd;stroke-width:0;stroke-linejoin:round;stroke-opacity:0.788633;enable-background:new"
     id="path559-3"
     cx="254.67786"
     cy="252.84473"
     rx="122.88879"
     ry="132.93652"
     sodipodi:insensitive="true" />
  <ellipse
     style="fill:#11002b;fill-rule:evenodd;stroke-width:0;stroke-linejoin:round;stroke-opacity:0.788633;enable-background:new"
     id="path559-6-56"
     cx="259.1142"
     cy="347.9361"
     rx="15.849609"
     ry="16.270996" />
  <ellipse
     style="fill:#11002b;fill-rule:evenodd;stroke-width:0;stroke-linejoin:round;stroke-opacity:0.788633;enable-background:new"
     id="path559-6-56-0"
     cx="281.59442"
     cy="368.66855"
     rx="15.849609"
     ry="16.270996" />
  <ellipse
     style="fill:#11002b;fill-rule:evenodd;stroke-width:0;stroke-linejoin:round;stroke-opacity:0.788633;enable-background:new"
     id="path559-6-56-3"
     cx="290.00211"
     cy="334.58472"
     rx="15.849609"
     ry="16.270996" />
  <ellipse
     style="fill:#11002b;fill-rule:evenodd;stroke-width:0;stroke-linejoin:round;stroke-opacity:0.788633;enable-background:new"
     id="path559-6-56-3-2"
     cx="324.01758"
     cy="343.20117"
     rx="15.849609"
     ry="16.270996" />
  <ellipse
     style="fill:#11002b;fill-rule:evenodd;stroke-width:0;stroke-linejoin:round;stroke-opacity:0.788633;enable-background:new"
     id="path559-6-56-3-8"
     cx="313.41211"
     cy="315.10547"
     rx="15.849609"
     ry="16.270996" />
  <ellipse
     style="fill:#11002b;fill-rule:evenodd;stroke-width:0;stroke-linejoin:round;stroke-opacity:0.788633;enable-background:new"
     id="path559-6-56-3-9"
     cx="345.80664"
     cy="315.55664"
     rx="15.849609"
     ry="16.270996" />
  <ellipse
     style="fill:#11002b;fill-rule:evenodd;stroke-width:0;stroke-linejoin:round;stroke-opacity:0.788633;enable-background:new"
     id="path559-6-56-3-7"
     cx="353.58594"
     cy="282.66992"
     rx="15.849609"
     ry="16.270996" />
  <ellipse
     style="fill:#11002b;fill-rule:evenodd;stroke-width:0;stroke-linejoin:round;stroke-opacity:0.788633;enable-background:new"
     id="path559-6-56-3-3"
     cx="327.6543"
     cy="274.55273"
     rx="15.849609"
     ry="16.270996" />
  <ellipse
     style="fill:#11002b;fill-rule:evenodd;stroke-width:0;stroke-linejoin:round;stroke-opacity:0.788633;enable-background:new"
     id="path559-6-56-06"
     cx="252.32663"
     cy="268.20618"
     rx="15.849609"
     ry="16.270996" />
  <ellipse
     style="fill:#ffffff;fill-rule:evenodd;stroke-width:0;stroke-linejoin:round;stroke-opacity:0.788633;enable-background:new"
     id="path559-6-7-2-2"
     cx="252.56931"
     cy="268.39856"
     rx="8.1291504"
     ry="8.0168457" />
  <ellipse
     style="fill:#11002b;fill-rule:evenodd;stroke-width:0;stroke-linejoin:round;stroke-opacity:0.788633;enable-background:new"
     id="path559-6-56-6"
     cx="239.31133"
     cy="370.42352"
     rx="15.849609"
     ry="16.270996" />
  <rect
     style="fill:#002255;fill-rule:evenodd;stroke-width:1.00026"
     id="rect900"
     width="229.24124"
     height="17.817554"
     x="-325.08447"
     y="348.1106"
     transform="matrix(0.53024459,-0.84784472,0.83006384,0.55766838,0,0)" />
  <rect
     style="fill:#000000;fill-rule:evenodd;stroke-width:1.00214;enable-background:new"
     id="rect900-6"
     width="191.48154"
     height="14.346253"
     x="153.96715"
     y="121.85731"
     transform="matrix(0.89374776,0.44856988,-0.52936033,0.8483971,0,0)" />
  <ellipse
     style="fill:#000000;fill-rule:evenodd;stroke-width:0;stroke-linejoin:round;stroke-opacity:0.788633;enable-background:new"
     id="path559-6-56-6-1"
     cx="72.343102"
     cy="178.46266"
     rx="15.849609"
     ry="16.270996" />
  <rect
     style="fill:#002255;fill-rule:evenodd;stroke-width:1.00026;enable-background:new"
     id="rect900-8"
     width="229.24124"
     height="17.817554"
     x="364.58615"
     y="-108.34559"
     transform="matrix(0.4596429,0.88810383,-0.9026503,0.43037476,0,0)" />
  <rect
     style="fill:#002255;fill-rule:evenodd;stroke-width:1"
     id="rect929"
     width="3.3359375"
     height="132.7334"
     x="251.7998"
     y="119.98535" />
  <rect
     style="fill:#002255;fill-rule:evenodd;stroke-width:1;enable-background:new"
     id="rect929-0"
     width="3.1790688"
     height="126.96445"
     x="103.54179"
     y="210.90021"
     transform="matrix(0.89113629,-0.45373573,0.44920891,0.89342675,0,0)" />
  <rect
     style="fill:#002255;fill-rule:evenodd;stroke-width:1.00125;enable-background:new"
     id="rect929-2"
     width="2.8214056"
     height="115.30559"
     x="-90.942368"
     y="233.05731"
     transform="matrix(0.59742704,-0.80192327,0.84215211,0.53924004,0,0)" />
  <rect
     style="fill:#002255;fill-rule:evenodd;stroke-width:1.00222;enable-background:new"
     id="rect929-2-9"
     width="2.5522959"
     height="103.29983"
     x="361.29272"
     y="-65.526634"
     transform="matrix(0.51529754,0.85701134,-0.80481485,0.59352595,0,0)" />
  <rect
     style="fill:#002255;fill-rule:evenodd;stroke-width:1.0022;enable-background:new"
     id="rect929-2-9-2"
     width="2.5897651"
     height="104.79563"
     x="124.45444"
     y="-477.66092"
     transform="matrix(-0.52881458,0.84873738,-0.89451683,-0.44703427,0,0)" />
  <rect
     style="fill:#002255;fill-rule:evenodd;stroke-width:1.00646;enable-background:new"
     id="rect929-3"
     width="3.0014555"
     height="128.47836"
     x="355.13416"
     y="-84.316864"
     transform="matrix(0.79402501,0.60788509,-0.47348456,0.88080212,0,0)" />
  <rect
     style="fill:#002255;fill-rule:evenodd;stroke-width:0.999998;enable-background:new"
     id="rect929-7"
     width="3.3359375"
     height="102.87402"
     x="249.41602"
     y="283.11768" />
  <rect
     style="fill:#002255;fill-rule:evenodd;stroke-width:1.00001;enable-background:new"
     id="rect929-9"
     width="3.3358934"
     height="104.42316"
     x="267.62723"
     y="-234.94228"
     transform="matrix(0.00655032,0.99997855,-0.99994399,0.01058357,0,0)" />
  <rect
     style="fill:#002255;fill-rule:evenodd;stroke-width:1.00001;enable-background:new"
     id="rect929-9-2"
     width="3.3359003"
     height="109.34081"
     x="267.11615"
     y="-375.47983"
     transform="matrix(0.00685882,0.99997648,-0.99994892,0.01010757,0,0)" />
  <rect
     style="fill:#002255;fill-rule:evenodd;stroke-width:1.00141;enable-background:new"
     id="rect929-75"
     width="2.837522"
     height="117.32546"
     x="357.98145"
     y="-195.03212"
     transform="matrix(0.55336055,0.83294184,-0.87203048,0.48945158,0,0)" />
</svg>
