<?xml version="1.0" encoding="UTF-8" standalone="no"?>
<svg
   style="enable-background:new"
   height="512"
   viewBox="0 0 512.40002 512"
   width="512.4"
   version="1.1"
   id="svg2187"
   sodipodi:docname="logo.svg"
   inkscape:version="1.2.2 (b0a8486541, 2022-12-01, custom)"
   xmlns:inkscape="http://www.inkscape.org/namespaces/inkscape"
   xmlns:sodipodi="http://sodipodi.sourceforge.net/DTD/sodipodi-0.dtd"
   xmlns="http://www.w3.org/2000/svg"
   xmlns:svg="http://www.w3.org/2000/svg">
  <sodipodi:namedview
     id="namedview2189"
     pagecolor="#ffffff"
     bordercolor="#999999"
     borderopacity="1"
     inkscape:showpageshadow="0"
     inkscape:pageopacity="0"
     inkscape:pagecheckerboard="0"
     inkscape:deskcolor="#d1d1d1"
     showgrid="false"
     showguides="false"
     inkscape:zoom="0.70710678"
     inkscape:cx="438.4062"
     inkscape:cy="326.68333"
     inkscape:window-width="1920"
     inkscape:window-height="935"
     inkscape:window-x="0"
     inkscape:window-y="0"
     inkscape:window-maximized="1"
     inkscape:current-layer="svg2187" />
  <defs
     id="defs2159">
    <rect
       x="188.70492"
       y="220.29508"
       width="130.27322"
       height="95.639344"
       id="rect5595" />
    <linearGradient
       id="a"
       y2="494"
       gradientUnits="userSpaceOnUse"
       x2="256"
       gradientTransform="matrix(1 0 0 1.076 0 -19.36)"
       y1="18"
       x1="256">
      <stop
         style="stop-color:#eaeaea"
         offset="0"
         id="stop2154" />
      <stop
         style="stop-color:#f4f4f4"
         offset="1"
         id="stop2156" />
    </linearGradient>
  </defs>
  <rect
     style="fill:#2c89a0;fill-rule:evenodd;stroke-width:1"
     id="rect5509"
     width="510.81967"
     height="510.58011"
     x="1.9839478"
     y="1.3415527" />
  <path
     d="m-208.3 605.6c-7.842 0-14.55 5.029-17.32 12.19-0.0612-0.00067-0.1208 0-0.1823 0-7.088 0-12.83 6.002-12.83 13.41 0 7.404 5.746 13.41 12.83 13.41h17.5 16.33c5.155 0 9.333-4.365 9.333-9.75 0-4.543-2.974-8.363-7-9.445 0.001-0.1029 0-0.2015 0-0.3047 0-10.77-8.357-19.5-18.67-19.5z"
     style="stroke-width:4;color:#000000;stroke:#ccc;enable-background:accumulate;display:none;fill:#fff"
     id="path2171" />
  <path
     style="stroke-width:4;color:#000000;stroke:#ccc;enable-background:accumulate;display:none;fill:none"
     d="m288.9 828.1c-6.349 0-11.78 4.072-14.02 9.867-0.0496-0.00055-0.0978 0-0.1476 0-5.738 0-10.39 4.86-10.39 10.85 0 5.995 4.652 10.85 10.39 10.85h14.17 13.22c4.173 0 7.557-3.534 7.557-7.894 0-3.678-2.408-6.771-5.667-7.647 0.001-0.0833 0-0.1632 0-0.2467 0-8.719-6.766-15.79-15.11-15.79z"
     id="path2173" />
  <g
     style="display:none"
     transform="translate(0 -558.4)"
     id="g2185">
    <path
       d="m166.1 576.4h179.9c145.3 0 166.1 20.74 166.1 165.9v144.2c0 145.2-20.76 165.9-166.1 165.9h-179.9c-145.3 0-166.1-20-166.1-165.5v-144.2c0-145.2 20.76-165.9 166.1-165.9z"
       style="stroke:#00f;fill:#00f;display:inline;fill-opacity:.08118"
       id="path2175" />
    <circle
       style="stroke-width:.8333;fill-opacity:.08118;color:#000000;stroke:#00f;enable-background:accumulate;display:inline;fill:#00f"
       cx="256"
       transform="matrix(1.2 0 0 1.2 -51.2 528.8)"
       cy="238"
       r="120"
       id="circle2177" />
    <rect
       style="stroke-linejoin:round;fill-opacity:.08118;color:#000000;stroke:#00f;stroke-linecap:round;enable-background:accumulate;display:inline;fill:#00f"
       height="272"
       width="272"
       y="678.4"
       x="120"
       id="rect2179" />
    <rect
       style="stroke-linejoin:round;fill-opacity:.08118;color:#000000;stroke:#00f;stroke-linecap:round;enable-background:accumulate;display:inline;fill:#00f"
       height="240"
       width="304"
       y="694.4"
       x="104"
       id="rect2181" />
    <rect
       style="stroke-linejoin:round;fill-opacity:.08118;color:#000000;stroke:#00f;stroke-linecap:round;enable-background:accumulate;display:inline;fill:#00f"
       height="304"
       width="240"
       y="662.4"
       x="136"
       id="rect2183" />
  </g>
  <ellipse
     style="fill:#11002b;fill-rule:evenodd;stroke-width:0;stroke-linejoin:round;stroke-opacity:0.788633"
     id="path559"
     cx="261.10352"
     cy="211.82812"
     rx="136.91602"
     ry="147.14844" />
  <ellipse
     style="fill:#ffffff;fill-rule:evenodd;stroke-width:0;stroke-linejoin:round;stroke-opacity:0.788633;enable-background:new"
     id="path559-3"
     cx="261.27161"
     cy="211.08301"
     rx="122.88879"
     ry="132.93652" />
  <ellipse
     style="fill:#11002b;fill-rule:evenodd;stroke-width:0;stroke-linejoin:round;stroke-opacity:0.788633;enable-background:new"
     id="path559-6-56"
     cx="187.84857"
     cy="299.72906"
     rx="15.849609"
     ry="16.270996" />
  <ellipse
     style="fill:#11002b;fill-rule:evenodd;stroke-width:0;stroke-linejoin:round;stroke-opacity:0.788633;enable-background:new"
     id="path559-6-56-0"
     cx="197.48114"
     cy="242.25449"
     rx="15.849609"
     ry="16.270996" />
  <ellipse
     style="fill:#11002b;fill-rule:evenodd;stroke-width:0;stroke-linejoin:round;stroke-opacity:0.788633;enable-background:new"
     id="path559-6-56-3"
     cx="296.59586"
     cy="292.823"
     rx="15.849609"
     ry="16.270996" />
  <ellipse
     style="fill:#11002b;fill-rule:evenodd;stroke-width:0;stroke-linejoin:round;stroke-opacity:0.788633;enable-background:new"
     id="path559-6-56-3-2"
     cx="330.61133"
     cy="301.43945"
     rx="15.849609"
     ry="16.270996" />
  <ellipse
     style="fill:#11002b;fill-rule:evenodd;stroke-width:0;stroke-linejoin:round;stroke-opacity:0.788633;enable-background:new"
     id="path559-6-56-3-8"
     cx="320.00586"
     cy="273.34375"
     rx="15.849609"
     ry="16.270996" />
  <ellipse
     style="fill:#11002b;fill-rule:evenodd;stroke-width:0;stroke-linejoin:round;stroke-opacity:0.788633;enable-background:new"
     id="path559-6-56-3-9"
     cx="352.40039"
     cy="273.79492"
     rx="15.849609"
     ry="16.270996" />
  <ellipse
     style="fill:#11002b;fill-rule:evenodd;stroke-width:0;stroke-linejoin:round;stroke-opacity:0.788633;enable-background:new"
     id="path559-6-56-3-7"
     cx="360.17969"
     cy="240.9082"
     rx="15.849609"
     ry="16.270996" />
  <ellipse
     style="fill:#11002b;fill-rule:evenodd;stroke-width:0;stroke-linejoin:round;stroke-opacity:0.788633;enable-background:new"
     id="path559-6-56-3-3"
     cx="242.80664"
     cy="328.22461"
     rx="15.849609"
     ry="16.270996" />
  <ellipse
     style="fill:#11002b;fill-rule:evenodd;stroke-width:0;stroke-linejoin:round;stroke-opacity:0.788633;enable-background:new"
     id="path559-6-56-06"
     cx="258.92038"
     cy="226.44446"
     rx="15.849609"
     ry="16.270996" />
  <ellipse
     style="fill:#ffffff;fill-rule:evenodd;stroke-width:0;stroke-linejoin:round;stroke-opacity:0.788633;enable-background:new"
     id="path559-6-7-2-2"
     cx="259.16306"
     cy="226.63684"
     rx="8.1291504"
     ry="8.0168457" />
  <ellipse
     style="fill:#11002b;fill-rule:evenodd;stroke-width:0;stroke-linejoin:round;stroke-opacity:0.788633;enable-background:new"
     id="path559-6-56-6"
     cx="165.49492"
     cy="261.12665"
     rx="15.849609"
     ry="16.270996" />
  <rect
     style="fill:#002255;fill-rule:evenodd;stroke-width:1.00361"
     id="rect900"
     width="223.84801"
     height="16.733828"
     x="-264.16168"
     y="331.40594"
     transform="matrix(0.49399033,-0.8694674,0.80402026,0.59460191,0,0)" />
  <rect
     style="fill:#000000;fill-rule:evenodd;stroke-width:1.00214;enable-background:new"
     id="rect900-6"
     width="191.48154"
     height="14.346253"
     x="137.38309"
     y="81.401474"
     transform="matrix(0.89374776,0.44856988,-0.52936033,0.8483971,0,0)" />
  <ellipse
     style="fill:#000000;fill-rule:evenodd;stroke-width:0;stroke-linejoin:round;stroke-opacity:0.788633;enable-background:new"
     id="path559-6-56-6-1"
     cx="78.936852"
     cy="136.70094"
     rx="15.849609"
     ry="16.270996" />
  <rect
     style="fill:#002255;fill-rule:evenodd;stroke-width:1;enable-background:new"
     id="rect900-8"
     width="214.15619"
     height="16.148087"
     x="331.59412"
     y="-138.58145"
     transform="matrix(0.44162102,0.89720169,-0.8939508,0.4481651,0,0)" />
  <rect
     style="fill:#002255;fill-rule:evenodd;stroke-width:1"
     id="rect929"
     width="3.3359375"
     height="132.7334"
     x="258.39355"
     y="78.223633" />
  <rect
     style="fill:#002255;fill-rule:evenodd;stroke-width:1;enable-background:new"
     id="rect929-0"
     width="3.1790688"
     height="126.96445"
     x="128.19287"
     y="176.67621"
     transform="matrix(0.89113629,-0.45373573,0.44920891,0.89342675,0,0)" />
  <rect
     style="fill:#002255;fill-rule:evenodd;stroke-width:1.00125;enable-background:new"
     id="rect929-2"
     width="2.8214056"
     height="115.30559"
     x="-52.1199"
     y="213.3461"
     transform="matrix(0.59742704,-0.80192327,0.84215211,0.53924004,0,0)" />
  <rect
     style="fill:#002255;fill-rule:evenodd;stroke-width:1.00222;enable-background:new"
     id="rect929-2-9"
     width="2.5522959"
     height="103.29983"
     x="331.46393"
     y="-92.817947"
     transform="matrix(0.51529754,0.85701134,-0.80481485,0.59352595,0,0)" />
  <rect
     style="fill:#002255;fill-rule:evenodd;stroke-width:1.0022;enable-background:new"
     id="rect929-2-9-2"
     width="2.5897651"
     height="104.79563"
     x="83.97245"
     y="-461.10034"
     transform="matrix(-0.52881458,0.84873738,-0.89451683,-0.44703427,0,0)" />
  <rect
     style="fill:#002255;fill-rule:evenodd;stroke-width:1.00646;enable-background:new"
     id="rect929-3"
     width="3.0014555"
     height="128.47836"
     x="340.98737"
     y="-121.96676"
     transform="matrix(0.79402501,0.60788509,-0.47348456,0.88080212,0,0)" />
  <rect
     style="fill:#002255;fill-rule:evenodd;stroke-width:0.999998;enable-background:new"
     id="rect929-7"
     width="3.3359375"
     height="102.87402"
     x="256.00977"
     y="241.35596" />
  <rect
     style="fill:#002255;fill-rule:evenodd;stroke-width:1.00001;enable-background:new"
     id="rect929-9"
     width="3.3358934"
     height="104.42316"
     x="225.9373"
     y="-241.80949"
     transform="matrix(0.00655032,0.99997855,-0.99994399,0.01058357,0,0)" />
  <rect
     style="fill:#002255;fill-rule:evenodd;stroke-width:1.00001;enable-background:new"
     id="rect929-9-2"
     width="3.3359003"
     height="109.34081"
     x="225.42299"
     y="-382.35989"
     transform="matrix(0.00685882,0.99997648,-0.99994892,0.01010757,0,0)" />
  <rect
     style="fill:#002255;fill-rule:evenodd;stroke-width:1.00141;enable-background:new"
     id="rect929-75"
     width="2.837522"
     height="117.32546"
     x="324.69788"
     y="-223.7141"
     transform="matrix(0.55336055,0.83294184,-0.87203048,0.48945158,0,0)" />
  <rect
     style="fill:#002255;fill-rule:evenodd;stroke-width:1.00026;enable-background:new"
     id="rect900-8-3"
     width="229.24124"
     height="17.817554"
     x="151.63948"
     y="426.31461"
     transform="matrix(0.99999083,0.00428306,-0.0369598,0.99931675,0,0)" />
  <g
     transform="matrix(-0.0052034,-0.99998659,1.0047936,-0.00517851,17.249129,516.70854)"
     id="g2156"
     style="stroke-width:0.997605;enable-background:new">
    <path
       style="color:#000000;opacity:0.3;fill:#ffffff;stroke-width:0.997605;enable-background:accumulate"
       d="M 256,256 108.2,512 H 512 V 256 H 389.3 Z"
       transform="translate(0,-18)"
       id="path2152" />
    <path
       style="color:#000000;opacity:0.15;fill:#ffffff;stroke-width:0.997605;enable-background:accumulate"
       d="M 0,0 V 512 H 108.2 L 184.6,379.7 256,256 187.1,136 186.9,136.3 108.2,0 Z"
       transform="translate(0,-18)"
       id="path2154" />
  </g>
</svg>
